/* XPM */
static char *_760e87eabe440fab62e757a427e241bvmIz6I3ADY5XpHiJ[] = {
/* columns rows colors chars-per-pixel */
"64 64 202 2 ",
"   c #010101",
".  c #090001",
"X  c #010906",
"o  c #040409",
"O  c #08070C",
"+  c #030A0B",
"@  c #0A0A0D",
"#  c #0C0C14",
"$  c #0D0F1A",
"%  c #120D16",
"&  c #140718",
"*  c #140E1A",
"=  c #190E1B",
"-  c #0E111B",
";  c #0D1015",
":  c #14131B",
">  c #19121E",
",  c #14191E",
"<  c #121317",
"1  c #20131D",
"2  c #151521",
"3  c #1B1522",
"4  c #111822",
"5  c #1A1A24",
"6  c #1E1C29",
"7  c #260F21",
"8  c #211523",
"9  c #221A26",
"0  c #271628",
"q  c #231B2A",
"w  c #2B1D2E",
"e  c #251D32",
"r  c #2C1E31",
"t  c #2D1E3B",
"y  c #321F3F",
"u  c #321A34",
"i  c #1F2130",
"p  c #202126",
"a  c #23202D",
"s  c #2A222D",
"d  c #32222F",
"f  c #252333",
"g  c #2C2434",
"h  c #2B2837",
"j  c #2A263A",
"k  c #2D2A3A",
"l  c #232639",
"z  c #312435",
"x  c #332A37",
"c  c #31263B",
"v  c #39273F",
"b  c #322A3D",
"n  c #2E2C41",
"m  c #2C2340",
"M  c #332D42",
"N  c #3A2E42",
"B  c #3C2E4A",
"V  c #353144",
"C  c #393146",
"Z  c #33314A",
"A  c #39354C",
"S  c #3E3955",
"D  c #4C3047",
"F  c #43344D",
"G  c #46384F",
"H  c #59324F",
"J  c #423953",
"K  c #4E3B56",
"L  c #4D3D5A",
"P  c #453653",
"I  c #5D3857",
"U  c #543F5B",
"Y  c #553A54",
"T  c #673E5E",
"R  c #673F61",
"E  c #46415F",
"W  c #4B415A",
"Q  c #564357",
"!  c #55425B",
"~  c #5A455C",
"^  c #5B4A5C",
"/  c #604855",
"(  c #66465B",
")  c #664558",
"_  c #65505F",
"`  c #4F4462",
"'  c #554663",
"]  c #5B4563",
"[  c #5D4964",
"{  c #5A4569",
"}  c #584A6B",
"|  c #5F4F74",
" . c #5E5373",
".. c #624663",
"X. c #6B4664",
"o. c #644A64",
"O. c #6C4A64",
"+. c #64476C",
"@. c #644A6B",
"#. c #6A4D6C",
"$. c #724B65",
"%. c #744A6B",
"&. c #6C526B",
"*. c #695067",
"=. c #76546F",
"-. c #634C71",
";. c #6B4F74",
":. c #625474",
">. c #6B5272",
",. c #6D537B",
"<. c #675879",
"1. c #695A7B",
"2. c #635578",
"3. c #755676",
"4. c #795675",
"5. c #765A77",
"6. c #75567C",
"7. c #7D577A",
"8. c #75597A",
"9. c #7A597C",
"0. c #795873",
"q. c #796477",
"w. c #815B7E",
"e. c #85577E",
"r. c #6B5A82",
"t. c #7E5581",
"y. c #7A5A81",
"u. c #6E6084",
"i. c #706087",
"p. c #7C6182",
"a. c #7A6289",
"s. c #7E6993",
"d. c #855E82",
"f. c #895C85",
"g. c #836284",
"h. c #84638B",
"j. c #8B668C",
"k. c #86698D",
"l. c #8E698D",
"z. c #93668D",
"x. c #926A8E",
"c. c #88708A",
"v. c #8E6A91",
"b. c #886A95",
"n. c #946592",
"m. c #986794",
"M. c #936B93",
"N. c #9A6D94",
"B. c #9A6D9B",
"V. c #8E7190",
"C. c #947096",
"Z. c #9B7196",
"A. c #94729B",
"S. c #9C729A",
"D. c #A16B9F",
"F. c #A2739C",
"G. c #A07195",
"H. c #9672A1",
"J. c #9F78A6",
"K. c #9E75A1",
"L. c #A374A3",
"P. c #A57CA6",
"I. c #A978A7",
"U. c #AA76AA",
"Y. c #A47BAA",
"T. c #AC7DAA",
"R. c #AA74A6",
"E. c #B27EAC",
"W. c #A47EB1",
"Q. c #AD7EB1",
"!. c #B37DB0",
"~. c #AE81AC",
"^. c #B481AE",
"/. c #AA81B1",
"(. c #A981B6",
"). c #B484B3",
"_. c #BD84B6",
"`. c #B788B2",
"'. c #BC89B5",
"]. c #BD85BA",
"[. c #B58ABD",
"{. c #BD8ABB",
"}. c #C486B6",
"|. c #C18BB5",
" X c #C686BD",
".X c #C286BA",
"XX c #C986BD",
"oX c #C289BB",
"OX c #C78BBF",
"+X c #C688BF",
"@X c #C48ABD",
"#X c #C889BE",
"$X c #C98ABF",
"%X c #CA89BF",
"&X c #C989BE",
"*X c #BF8BC2",
"=X c #C783C0",
"-X c #CB87C1",
";X c #C689C1",
":X c #C48BC2",
">X c #CB8AC2",
",X c #CA90C3",
/* pixels */
"].].*X*X+X;X>X.X#X#X#X#X#X#X#X#XXX-X;X{. X_.;X#X#X+X#X#X#X#X$X#X$XOXoX@XOX+XOXOXoX X].@X$X+X;XXX#X#X#X#X#X#X XXX+X X#X>X:X(.-X.X",
":X_.J.K.I.T.E.P.P.T.P.T.T.T.T.P.E.E.T.T.;X]./.T.T.^.T.T.~.~.~.~.E.^.^.^.^.E.E.E.P.=X{.Y.~.T.).^.^.^.^.^.).^.^.^.).^.^.!.W.W.;X@X",
"*XQ.a. .[ { R ' ' ] ] ^ ^ ] ' ] { ..{ ;.T.K.-.] ..+...+.+.+.+.+.] ] [ [ [ ' ~ ~ >.T.J.-...+.@.o.@.#.#.#.&.-.>.#.&.#.>.,.<.b._.{.",
">X).1.J Z j g j h g h g h g h g j z c K P.A.B x k b k x c x k k k k h h h h h f G P.H.B h x M c b b M M M N N C N M V F ` r.{.@X",
" XT.} M i 4 * : : * * < : % % : 2 : * j S.M.e 2 2 : : : 2 : : : = * < : : * * % h F.M.6 ; * : , 2 : 2 , 2 3 2 5 5 5 5 g Z  .{.{.",
" XE.[ b 5 + o X o o o o o o o o X o o q A.v.= X X o o X o o o o o o o o   o o o a G.M.2 X o o o + o o o O X O X O X @ 3 m  .oXoX",
" XE.' j : o                           q S.n.=                                   5 N.n.:   . o                     . o = j :..X.X",
";XT.! j % o .                         q Z.n.>   .                   .           p B.m.:     .                     .   % j :.].oX",
"#XT.~ g % o                       .   p S.z.-                                   9 N.M.* X                           o % j  .}.].",
"#XT.' h % o                           6 S.z.-                                   q Z.l.:                             o < j :..XoX",
"#XT.' h ; o .                         6 N.z.:                                   q Z.l.*                             o % f :..XoX",
"&XT.~ h % o                           6 N.z.$                                   9 Z.l.*     o                       o % j  ..XoX",
"&XP.~ h % o                           6 m.z.-                                   5 N.l.$                             o * f | .XoX",
"&X~.' h % o                           6 Z.z.$                                   5 N.x.#                               = j  ._.oX",
"&XT.] h % o                           6 N.z.-                                   q N.n.*   .                           < h  ..XoX",
"&XT.] h : o                       .   q Z.m.:                                   9 N.x.-                             o * j :..XoX",
"&XP.[ k : o o .                   . o t C.l.8 .                                 w S.c.>   o                       . X : k :._.&X",
">XT.+.k - X       o o   o     o     o g S.n.5     o   o o   o o o o   o   o o o g N.M.>   . X     o o   o     o     X : j <.{.oX",
">XT.] e #                       o     5 F.m.<                                   w F.N.$   . .                         % e | {.oX",
"{.T.6.U N z g s r g z g r g g z j N g Y T.L.F f w w s w w w s s w 0 w d r g x x K R.K.B r r r s s r w w r s w w f d x G ! a.{.oX",
".X{.Z.k.g.3.3.3.3.3.3.3.3.4.3.5.0.0.9.p.7.d.5.4.3.3.3.5.4.5.3.3.4.5.4.9.7.4.9.4.q.e.d.5.*.=.5.=.4.9.5.5.5.5.3.3.5.w.9.w.M.A.].}.",
"}.].M.y.3.#.%.#.O.O.#.O.O.#.O.O.$.$.O.@.I X.X.$.X.O.O.O.O.O.O.O.O.O.O.O.O.O.$.O.o.T ( o.O.o.#.$.O.O.O.O.X.X.O.O.#.%.#.3.h.v.!.}.",
".X).h.<.[ Q Q Q U ! ! ! U Y U ! ^ [ [ >.(.W.] U ! ! ! U ~ ! ! ! U U U ! ' ] o.[ :.Q.Y.{ ^ ` L ! ! ! ! ! ! ! ! U Q / ' :.8.b.OX&X",
";XY.{ j $ o o   o           o   X   . > x.d.# o       o     o         o         5 z.l.@   . o                     o o 2 m  .).&X",
";XE.[ k * O                           6 N.z.$                                   6 N.j.#   .                         o < c  ..X@X",
"+XE.+.k : o   .                       5 m.z.$                                   9 Z.j.:                             O > c :._.@X",
"@XE.[ k : O                           5 N.z.$                                   9 N.k.%   .                         o < b  ._.+X",
"@XE.+.n < o                           6 N.z.-                                   9 Z.l.*     o                       o < k  .}.+X",
"OX^.+.k : O   .                       6 N.z.$                                   q Z.l.:   o                         o : n 2..X@X",
"OX^.[ b : O                           q Z.z.-                                   q Z.l.:                             o % c :._.@X",
"@XT...n : o   .                       6 G.x.:                                   q Z.v.:                             o : b  ..X.X",
"@X^.[ k * O                           6 B.z.:                                   q Z.v.:   .                         o : b :..X+X",
">X~.[ x < o                       .   6 N.z.$                                   5 N.l.*   o o                         < b <.].@X",
">X~.[ k : o                           a N.z.$                                   q N.v.&   .                         o * k :.].@X",
"$X~.[ x % X                           6 m.z.$                                   q m.v.*   .                         o % k :._.+X",
"#X~.] k % o                       .   q N.z.$                                   q N.l.*                             o % j :._.oX",
"&X~.~ h % o                       .   p N.x.:                                   q Z.n.:                             o % j :.].@X",
"&XT.' h ; o                           a N.N.*                                   q S.M.<     o                       o % j :.].oX",
"#XT.' h # o                           a S.m.,                                   q S.M.>                             o % j 2..XoX",
"%X^.] h % o                           a S.m.2                                   f S.M.:   .                         X % j :._.&X",
"$XP.] k $ o o   o         o o   X o o w Z.c.= o       o     o             o     i B.z.:   o           o             X ; l  .[.&X",
".X_.v.a.>.#.&.#.#.#.#.#.#.@.#.#.:.&.>.h.L.P.,.X.#.@.#.#.#.#.#.#.o.@.@.#.#.3.>.3.p.U.Y.1...+.#...#.#.#.#.#.#.#.@.@.%.3.9.h.H. X X",
"&X'.z.9.#.X.X.X.( ( ( / ( ( ( ( O.( ( o.D U ~ ) T / / ( ( ( ( ( ( ( ( ( _ ( ( ( / H Y ^ / ( ( _ ( ( ( ( ( ( ( ( ] O.( %.d.l.^.|.",
"_.[.C.k.a.8.8.6.y.y.y.9.9.6.y.y.7.f.9.g.B.H.y.4.y.y.9.9.y.y.y.y.y.9.9.y.y.y.y.p.d.D.B.9.6.t.t.9.y.y.6.y.y.y.9.8.5.g.9.j.v.A.{.+X",
"*XT.;.F e 3 3 5 , , : : : , , , 2 q , x Z.c.w < , : < , , , : , * : : : 3 5 5 5 k S.x.q : < : < : : , : , : < , 2 2 5 j S r.[.{.",
"+XT.{ x :         . .     .   . o o   3 G.z.&     . .   .   .     o         .   6 N.N.#   o o       . . .     .   . . > j ;.}.XX",
">X).-.M 2 o o o X                   X q Z.k.$   X               o     o         e x.h.; o o                 X   o   X 2 j :.].=X",
" XE.@.k - o                       .   0 N.l.* .                                 7 Z.c.% . .                       . X > v 2.).|.",
";XE.@.b > o                           6 Z.x.-                                   q Z.v.*                             o = n <..X@X",
"+X^.@.b > o   .                   .   q Z.x.-                                   q N.l.*     o                       X > M <.{..X",
"OX^.@.V 3 o X .                       6 N.x.-                                   9 Z.z.*                             X > M <..X:X",
"OX).@.V 3 X                           q Z.x.-                                   9 S.v.<   .                         o 3 Z 1..X.X",
"OX^.#.V 2 o                           6 Z.x.:                                   q Z.x.*                             o 3 M <.].@X",
"$X^.&.V 3 O   .                       q N.j.-                                   9 N.n.*   o                         o 5 Z <.].@X",
"OX^.&.V 3 o                       .   6 N.z.-                                   5 N.l.:                             X 8 Z <..X@X",
"+X^.>.V 3 o   .                       5 N.l.-                                   9 N.l.*                             X 3 V <.].@X",
";X).#.N > @         .                 9 M.n.$     .   . .     .                 5 S.m.$         .     . .     .   . o > C 1.oX{.",
";X).#.C : @   .                     . q Z.M.2                               X   6 N.n.*     .                     o @ 3 C <._.&X",
"$X`.>.C 5 # o o o O o o o o o o o o   g F.m.2 o o o o o o o o o o o o o o o o   f F.m.2 + o o o o o O o o o o O o @ ; q A r.oX&X",
"+X).>.J f 4 : * * % % % % % = < 3 4 + b F.F.e - > > > > * : : : < > % * % = % % b L.Z.f - : : : > > > > 3 2 3 5 3 , 5 j S r.].}.",
">X).9.` A k k h k j h h k h k k z k f W P.R.S k k k k j k j k k k k j j k k h f L Y.J.A h M b x V k V V V V V V N M V G } s.:X:X",
"#X).h.,.[ { { ~ ' ! ~ ! ! ] ! ~ ..] ] 6.E.R.:.' +.+.@.@.+...@.[ [ ] ] ^ ] ] ' ' 6.Q.T.&...+.#.o.@.#.@.:.#.>.>.&.;.#.>.,.r.b._.{.",
"=X{.T.J.Y.T.P.^.E.T.T.E.E.E.E.^.^.~.I.Y.{. X~.~.E.E.^.^.^.^.^.^.^.^.^.E.E.^.E.E.Y.].{.~.T.Q.^.^.^.^.^.^.^.^.^.).).).).Q./.(..X@X",
"{.{.*X*X>X>XXX&XOX+XOXOX+XOX>X;X&X#X%X*X=X X{. X&XoX&XoXOX+X+XOXOX@X+X+XoX&X#X$X{. X.X{.>X;X+XXX+XoX&X&XOX#X#X+X;X X:X=X*X[. XoX"
};
