/* XPM */
static char *c07d2edd64b04745ecfad99e7f5056b3mds1sk0zZDi34nIs[] = {
/* columns rows colors chars-per-pixel */
"64 64 211 2 ",
"   c #010101",
".  c #090602",
"X  c #050802",
"o  c #0B0B03",
"O  c #020409",
"+  c #02080B",
"@  c #0D0E0A",
"#  c #09070A",
"$  c #110506",
"%  c #0C1103",
"&  c #141207",
"*  c #1D1C03",
"=  c #161409",
"-  c #1D1D0C",
";  c #161D08",
":  c #1E1E11",
">  c #211E0E",
",  c #2D1C08",
"<  c #241F10",
"1  c #281F10",
"2  c #16250A",
"3  c #1D210C",
"4  c #192306",
"5  c #1E2110",
"6  c #23230E",
"7  c #262C0F",
"8  c #2A290C",
"9  c #282507",
"0  c #34230F",
"q  c #242312",
"w  c #2A2512",
"e  c #262912",
"r  c #2B2A14",
"t  c #2B2F19",
"y  c #2B2419",
"u  c #332D16",
"i  c #3A2E15",
"p  c #352E19",
"a  c #382D19",
"s  c #2C3115",
"d  c #283019",
"f  c #353116",
"g  c #3C3616",
"h  c #363119",
"j  c #3C341C",
"k  c #3E3919",
"l  c #332F24",
"z  c #44360F",
"x  c #423215",
"c  c #453B15",
"v  c #423519",
"b  c #423A1B",
"n  c #4A3C1C",
"m  c #3E421C",
"M  c #4B4617",
"N  c #44441D",
"B  c #4A441D",
"V  c #454A1E",
"C  c #4A4C1D",
"Z  c #51461F",
"A  c #544D1F",
"S  c #4E511F",
"D  c #63461E",
"F  c #4D4522",
"G  c #4E4A23",
"H  c #4A4525",
"J  c #524523",
"K  c #524A25",
"L  c #5A4D24",
"P  c #5C4E29",
"I  c #5C5124",
"U  c #5E502B",
"Y  c #5C5F26",
"T  c #614F29",
"R  c #654B29",
"E  c #754C2C",
"W  c #625526",
"Q  c #63552B",
"!  c #635C2B",
"~  c #6B5D2D",
"^  c #755B2C",
"/  c #7D5D2C",
"(  c #7A5528",
")  c #7D5A35",
"_  c #7E5B39",
"`  c #7A5836",
"'  c #754B35",
"]  c #6E652E",
"[  c #71672D",
"{  c #73692F",
"}  c #7C6434",
"|  c #796835",
" . c #7E7433",
".. c #895F2F",
"X. c #815E31",
"o. c #835B3B",
"O. c #895D3C",
"+. c #82543C",
"@. c #80602F",
"#. c #8A612E",
"$. c #836233",
"%. c #8C6332",
"&. c #866C35",
"*. c #8C6A33",
"=. c #84643A",
"-. c #8B613E",
";. c #8C6A3A",
":. c #936635",
">. c #996635",
",. c #946A36",
"<. c #92653C",
"1. c #946D3A",
"2. c #9A6C3A",
"3. c #9B6936",
"4. c #897639",
"5. c #9E753C",
"6. c #9C7C3A",
"7. c #94763A",
"8. c #A16E3A",
"9. c #A1753D",
"0. c #A37B3C",
"q. c #AB7A3C",
"w. c #895D40",
"e. c #856342",
"r. c #8D6240",
"t. c #8A6249",
"y. c #9E6E42",
"u. c #9D7341",
"i. c #9A7942",
"p. c #9A7547",
"a. c #A37543",
"s. c #AA7543",
"d. c #A37C42",
"f. c #AB7C44",
"g. c #AB754B",
"h. c #A47B49",
"j. c #AA7A49",
"k. c #B27C45",
"l. c #B47948",
"z. c #B57F51",
"x. c #9E813D",
"c. c #9C8245",
"v. c #A38244",
"b. c #AB8344",
"n. c #AB844D",
"m. c #AC8B48",
"M. c #BB8C46",
"N. c #B6864A",
"B. c #BB854B",
"V. c #B28E4A",
"C. c #B38546",
"Z. c #BB934B",
"A. c #BD8D51",
"S. c #B98B56",
"D. c #B99257",
"F. c #C58D4E",
"G. c #C98C4E",
"H. c #C38645",
"J. c #D08A4F",
"K. c #C2924F",
"L. c #CA924D",
"P. c #C58551",
"I. c #C58C52",
"U. c #CA8E53",
"Y. c #C9895B",
"T. c #D38E56",
"R. c #C59252",
"E. c #CC9254",
"W. c #CB945A",
"Q. c #C6975A",
"!. c #D39454",
"~. c #D49952",
"^. c #D4935B",
"/. c #D39A5B",
"(. c #DA9D5E",
"). c #DB9A56",
"_. c #E59C5C",
"`. c #D9A35A",
"'. c #E4A35D",
"]. c #EAA25F",
"[. c #CE8F64",
"{. c #DD9E60",
"}. c #D49564",
"|. c #E49F62",
" X c #EE9F64",
".X c #D4A263",
"XX c #DEA762",
"oX c #E4A464",
"OX c #EAA465",
"+X c #E4AB62",
"@X c #EBA965",
"#X c #EEA668",
"$X c #E6AA69",
"%X c #EEAA69",
"&X c #F2AB64",
"*X c #FCAC64",
"=X c #F3A568",
"-X c #F2AC6A",
";X c #FDAC6B",
":X c #F0A564",
">X c #F5B465",
",X c #FCB466",
"<X c #F4B966",
"1X c #FAB966",
"2X c #F6B36B",
"3X c #FDB56B",
"4X c #F5BB69",
"5X c #FEB96C",
"6X c #FBAF75",
"7X c #FEB470",
"8X c #FDBA70",
/* pixels */
"<X3X,X5X5X,X5X3X5X5X3X3X5X5X5X8X5X5X5X5X5X1X4X5X3X3X3X5X3X3X8X3X5X5X3X5X5X5X5X3X3X5X<X1X3X3X3X8X5X3X3X5X3X3X3X5X1X5X7X8X4X,X3X>X",
"5X3X&X+XoX'.oXoXoXoXoX|.oXoXoXoX|.OXOXOX;X;X@X:XOX+X$X@X+X@XOX$XOXOXOXOX#XOXOXOXOX3X3X@X$XOX#X$X%X#X@X%X%X@X%X&X@X@XOX%X+X>X7X3X",
"<X].M.0.7.$.$.X.................:.%.#.0.OX_.5.#.%.%.%.:.:.%.%.%.:.%.%...%...%...q.oX_.9.*.:.:.,.:.:.:.2.2.2.,.1.5.1.2.s.b.!.*X3X",
"8X@Xb.{ ! K H H J F F F J F J J G B B { /./.! G K K K K K K K K G G F G H F F H [ (.^.~ H J J K K L L P P Q I U L P T ~  .Z.>X5X",
"5XOX2.W b r e q 5 5 - 6 : 5 5 5 q 6 > K /.^.N q q 6 e 5 7 5 3 3 6 - > : - : - - V /.W.b 2 6 e e e e 8 e r r r r t t u N Y v.>X1X",
"3XOX%.G e & X   . X . . . . X # @ .   v !.U.8   o o o o % o o o o o . . . . . . k !.U.w X . . o @ o @ @ % o @ % o % = r S 0.2X3X",
"5XoX$.H 3 o X           .             h G.F.6 O                                 a J.I.1     O                 .   . . q B a.;X3X",
"1XOX..F < .                       . O a !.I.3 O                         O       j L.A.q     O   .                   . 5 V i.2X,X",
"3XoX..F 3 .                           a W.L.<                                   a E.I.q                             o : B 0.*X1X",
"3XoX..F 5 o                           j Q.R.<                                   h E.I.q                             o 5 H 5.;X3X",
"5XoX%.F 5 X                       .   a E.F.q                                   h L.I.q O                           o : B 5.2X3X",
"3XoX#.H 5 .                           a E.F.<                                   u E.I.3                         O   . : B 5.6X3X",
"5XoX..F 5 X                           p R.F.<                                   u E.F.:                             o : B 5.>X3X",
"5XoX..F 5 X                           a W.F.<                                   f L.I.q                             . : H 0.;X3X",
"3XoX%.F 5 X                           p E.F.<                                   h E.I.5                             X 5 H 0.2X3X",
"5XoX..F 5 o                           a Q.I.<                                   h E.U.q                         O   o q B 9.;X3X",
"5XOX#.J > . .                         v E.U.8                                   v R.I.0     .                   #   o 6 M 0.3X,X",
"7X|.-.G 6 o .   O   . . O     . O #   f ^.!.6 O       . .   O     .     . .     b !.L.0 O     O   .           O     X 3 B h.7X;X",
"5X].*.V ;     O                       j }.^.6                                   j T.W.1               O           O # 3 C v.7X3X",
"5X].b.{ I n c c b b v b v v b b n n n | /./.W x g g g g j k k k k j j b b n n n } {..XQ x b b x k k b b k k j g c c Z I  .M.-X1X",
"7X;X^.S.j.g.y.a.a.a.a.a.u.a.a.a.s.a.s.j.q.l.s.8.5.y.u.a.u.a.a.9.u.u.u.a.a.a.h.s.l.q.j.g.8.2.y.9.u.a.u.a.i.a.5.5.s.j.g.B.I.(.;X7X",
"4X2XU.m.u.<.=.=.r.-.O.O.O.O.-.r.w.=.=.=.( X.e.=.-.O.-.r.r.r.-.-.r.-.-.O.r.r.-.-.r.^ ` O.=.e.t.r.r.r.r.r.r.-.-.-.$.-.r.i.v.L.&X4X",
"3X*XH.v.1.$.$.$.$.$.$.$.X.$.$.$.=.;.&.c.'.oX4.) } X.X.} X.X.} X.X.X.X.X.$.;.;.;.v.`.XX1.) } ) / X.$.$.$.X.$.) $.$.&.r.i.m.~.3X3X",
"7XOX*.S 6 X O                     $   r Y.Y.4         X                         u P.A.* O     .                     % 6 S d.-X3X",
"3XOX%.K 6 X                           u U.F.>                                   u U.F.-                             o q G 0.2X3X",
"3XOX%.K 6 o                       .   u U.F.>                                   u G.F.- O                           o q G 9.3X3X",
"3XoX%.K 6 o .                     .   f E.F.<                                   p E.F.3                         O   o e K 0.2X3X",
"3XOX:.K 6 o                           u E.I.:                                   p U.U.- O                           o q G 9.3X3X",
"5XOX:.J q X                       .   h W.F.:                                   f L.U.3 .                           . q G 0.3X5X",
"3XOX%.G 3 o                       .   p W.G.<                                   f E.U.3 O                           X q K d.3X3X",
"3X@X%.J 6 o                       .   p !.G.q                                   f E.U.3                         O   . q G d.2X3X",
"3XOX:.G 3 o   .                   .   u W.G.q                                   p E.U.- O                           o q G 0.3X3X",
"7XOX%.G 6 o                       .   u E.U.-                                   u E.I.4                             . : G 0.3X3X",
"5XOX%.G 6 X                           t E.U.-                                   r E.F.3       O                     o : H 0.2X3X",
"5XOX%.G 3 .                           u U.G.-                                   u E.F.3 O                           o : B 0.3X3X",
"5XOX%.H - .                       .   u E.G.-                                   u E.F.3                             . : B 5.3X3X",
"3XOX%.H : .                       O   a !.G.q                                   h E.U.6                             . : G 6.>X*X",
"5XOX..H - .                       .   j ^.G.e                                   j E.U.6 O   .                       . : G 0.3X3X",
"3XOX%.F < .                     O     j ^.U.r                                   j !.U.e                             o : B 0.3X3X",
"5XOXO.H - .                       .   j !.U.r                                   j ^.E.e                               - G 0.3X;X",
"8X|.&.C 4 o   #     +         +   @ . b }.[.9       O O O O   +             # . N ^.G.9 O + . +     #           . X % e S v.7X4X",
";X;XU.S.h.p.p.1.1.1.7.1.1.7.1.1.p.p.7.V.`.'.0.;.1.1.7.1.1.7.1.1.1.1.1.1.5.u.i.u.n.oX'.x.;.;.*.&.1.1.7.1.7.1.1.1.1.p.p.j.D.{.7X;X",
"1X*XH.f.<...` ` o._ _ ) _ ` _ o.w.` _ _ R E } _ ` ` ) ) ) _ _ _ o._ o.) o.) o.) +.R ' ` o._ o.$._ _ _ _ _ _ _ o.` e.O.<.f.G.&X1X",
">X>X!.R.N.f.0.0.j.j.j.j.j.j.j.j.h.f.l.B.J.^.j.a.s.j.f.s.j.j.f.j.a.s.f.f.f.f.f.f.B.F.Q.v.s.u.j.a.j.h.j.j.j.j.j.s.s.b.k.N.Q.).2X2X",
"5X=X5.] n r e e q w q w 6 w w w r i u P W.[.m > q q w w w w q w 6 6 q w w r r u A !.W.b , w y w w w w e e q 6 w y r f B [ M.3X5X",
"5XoX*.G 3 . O O   .               .   r U.U.* .                                 u G.U.;                   .         o 6 M 6.2X*X",
"5X=X>.K q o .       O     .     O   + d F.I.* O O   O   .     O . O   O . O   O l U.P.- O     +         O       O   o q Z f.7X3X",
"1XOX:.K 6 .                           u L.I.>                                   a Z.U.>   X $                       o w K a.2X>X",
"3XOX>.K e o                           p E.F.5                                   p U.U.3 O                           o 6 A q.3X3X",
"3X@X:.L e o                       .   a E.F.:                                   p E.I.3                             o e L f.7X>X",
"3XOX1.L e o                           h !.L.:                                   f E.I.3 O                           @ w I s.7X3X",
"5X%X2.L r %                           h E.I.q                                   j E.U.q                             o r I f.7X,X",
"5X%X2.P e @                       .   a W.L.:                                   p E.U.6 O                           @ w A f.3X3X",
"5X%X2.T r o                           a E.I.5                                   p L.U.3       .                     o r I f.7X1X",
"3X@X,.L r % .                     .   p E.F.:                                   p L.I.3 O                           @ r L f.7X,X",
"5X@X,.W r o                           p U.F.:                                   u E.I.3                             @ r I f.7X1X",
"1X%X2.U r o                         . p E.U.2 .                                 p L.A.>     +                   .   & d I f.8X,X",
"3X@X2.P r @ .                   + X . t E.P.4                                   a !.I.>   .       .         .     . o r W f.7X3X",
"3X=X5.U h = o . o X . X o X o X   X X k /.E.7 X o o o o o o o o o o . . . . . . k ).E.w   o . # o @ o o @ % o @ & = - f W n.;X*X",
"3X@X9.] m r e 5 3 : 3 5 - 5 5 5 q 6 3 K (.^.N q w 6 6 6 6 6 6 6 6 - - > - 3 - - C (.^.N 2 8 y e 6 8 e r w r e r e r h V [ V.8X3X",
"5X-XC.&.! K J n F J F F G F F J J J F } oX(.^ G K K K G K K G G G G G H H G G B { oX(.^ B J J K K K L P U U U Q P T ! [ 7.K.4X2X",
"1X-XL.v.7.*.%.$.......%.........X.%.%.b.OX'.0.*.%.*.:.*.%.:.;.:.%.:.#.%.%.%.%...b.]._.0.;.>.3.;.,.,.1.:.,.2.,.2.:.3.9.0.M.).7X3X",
"5X3X&X'.+XoXOXXXOXOXoXoXoXoXOXOX$X$XoX@X3X2X@XoXOXOXOXOXOX%XOXOXOXOXOXOXOXOXOXOXOX7X3X@XoX:X:X@XOX@X%X@X@X=X%X=X-X=X-X@X@X*X3X3X",
"3X3X,X5X5X3X7X3X3X2X5X3X5X3X3X7X5X3X3X3X;X3X5X3X5X5X5X5X5X5X5X3X3X3X5X5X3X5X5X3X7X1X>X5X3X,X,X5X5X5X5X3X5X3X5X,X5X3X5X5X1X3X7X2X"
};
