/* XPM */
static char *_058580fe10349bcca5f5b5d50870e3b8yM2c36sjZTgCCpe[] = {
/* columns rows colors chars-per-pixel */
"64 64 201 2 ",
"   c #000101",
".  c #090103",
"X  c #000807",
"o  c #020409",
"O  c #030A0C",
"+  c #08080A",
"@  c #010312",
"#  c #050D16",
"$  c #090E16",
"%  c #060D19",
"&  c #0A0D1B",
"*  c #100F1D",
"=  c #061116",
"-  c #091116",
";  c #06111A",
":  c #09121B",
">  c #05181F",
",  c #0B191C",
"<  c #11131C",
"1  c #0D1622",
"2  c #071820",
"3  c #0B1A24",
"4  c #0D1D2B",
"5  c #101723",
"6  c #111A24",
"7  c #141228",
"8  c #131D2C",
"9  c #1A1E2D",
"0  c #141E33",
"q  c #0D212D",
"w  c #12222E",
"e  c #0F2231",
"r  c #0B2138",
"t  c #142433",
"y  c #182433",
"u  c #182836",
"i  c #152638",
"p  c #1B273C",
"a  c #162A3B",
"s  c #1A2A3B",
"d  c #1A2C42",
"f  c #1B3146",
"g  c #1D334A",
"h  c #1D384B",
"j  c #213244",
"k  c #23344C",
"l  c #243A4E",
"z  c #2F3F4F",
"x  c #333448",
"c  c #393F4F",
"v  c #323441",
"b  c #293751",
"n  c #223B53",
"m  c #2E3E54",
"M  c #313E54",
"N  c #3A3F52",
"B  c #343E5A",
"V  c #403E56",
"C  c #31414E",
"Z  c #3D454E",
"A  c #2E4155",
"S  c #27425F",
"D  c #2D415B",
"F  c #314056",
"G  c #3C4454",
"H  c #34445B",
"J  c #3B455C",
"K  c #3C495E",
"L  c #2F4C6A",
"P  c #354662",
"I  c #3A4762",
"U  c #334B63",
"Y  c #3C4B64",
"T  c #374769",
"R  c #344C69",
"E  c #3A4D69",
"W  c #345066",
"Q  c #37516B",
"!  c #3B516B",
"~  c #365073",
"^  c #3C5673",
"/  c #3C5A76",
"(  c #3E5D7C",
")  c #42454D",
"_  c #424554",
"`  c #494955",
"'  c #43455A",
"]  c #4A465C",
"[  c #444A5E",
"{  c #494A5E",
"}  c #50485F",
"|  c #4D535F",
" . c #404764",
".. c #434B61",
"X. c #4B4A61",
"o. c #4D5266",
"O. c #44536A",
"+. c #4E546A",
"@. c #4D596F",
"#. c #445162",
"$. c #505267",
"%. c #52556B",
"&. c #53596C",
"*. c #595F6F",
"=. c #555965",
"-. c #445475",
";. c #4C5572",
":. c #4D5B74",
">. c #435C7C",
",. c #4E5D7A",
"<. c #535573",
"1. c #525B74",
"2. c #595D73",
"3. c #555C79",
"4. c #5B5D7B",
"5. c #5C5574",
"6. c #4D607E",
"7. c #54637C",
"8. c #5B637E",
"9. c #61697C",
"0. c #63657C",
"q. c #415F81",
"w. c #4C6485",
"e. c #436185",
"r. c #556482",
"t. c #5D6581",
"y. c #516981",
"u. c #5C6983",
"i. c #5F6588",
"p. c #556D8C",
"a. c #5C6C8C",
"s. c #5F6891",
"d. c #5D7395",
"f. c #5B789A",
"g. c #606783",
"h. c #6A6785",
"j. c #636A86",
"k. c #6B6887",
"l. c #60658A",
"z. c #656D89",
"x. c #6B6B8A",
"c. c #6E7087",
"v. c #65718B",
"b. c #6B728C",
"n. c #70708C",
"m. c #6D6F91",
"M. c #636B90",
"N. c #647395",
"B. c #6C7494",
"V. c #637897",
"C. c #6B7996",
"Z. c #64759A",
"A. c #6B769A",
"S. c #65789B",
"D. c #6D7A9C",
"F. c #717699",
"G. c #727B9C",
"H. c #7A7E9E",
"J. c #717693",
"K. c #6B7DA2",
"L. c #747EA0",
"P. c #797EA1",
"I. c #807FA7",
"U. c #807FAB",
"Y. c #7B809E",
"T. c #6D82A4",
"R. c #7581A3",
"E. c #7C82A6",
"W. c #7687AA",
"Q. c #7583A9",
"!. c #7D86AA",
"~. c #7F86AD",
"^. c #7D84AA",
"/. c #7589AE",
"(. c #7E89AD",
"). c #7989AB",
"_. c #7D86B0",
"`. c #7688B0",
"'. c #788BB3",
"]. c #8384A5",
"[. c #8489A7",
"{. c #8989A5",
"}. c #8683AB",
"|. c #8385AB",
" X c #8286AB",
".X c #8286AD",
"XX c #8685AD",
"oX c #8486AD",
"OX c #8786AE",
"+X c #8587AE",
"@X c #8486AD",
"#X c #8885AD",
"$X c #8289AD",
"%X c #8588AE",
"&X c #8389AD",
"*X c #8B8AAE",
"=X c #8686B3",
"-X c #8886B1",
";X c #858BB1",
":X c #8A89B1",
">X c #8A8AB2",
/* pixels */
"E.Q./.W.$X>X}.-XOXOXOXOXOXOXOXOX$X X>X).}.).E.*XOXOX%X%X%XOXOXOXOXOXOXOXOXOXOX>X~.!.E.~.>X X%XOXOXOX XOXOX%XOXoXoX#X!.%X(.T.OX|.",
" XR.Z.d.N.G.G.L.G.G.G.G.D.G.G.G.G.F.F.N.|.W.A.H.G.G.G.G.G.G.G.G.G.G.G.G.G.G.G.G.A.(.).A.G.G.G.G.P.G.G.P.P.R.P.P.R.H.Y.G.V.d.oXoX",
" XG.-.U A F A A H H F F A m F F H B J Q F.d.P B H H H H H H H H H H H H H H H H P N.N.H H H K K I I I Y Y Y Y Y I I U Y R ( R.!.",
">XR.R n a t w q w w w w w w w w t t 0 h B.a.d y t t t t t t t t t t t t w w w w j C.z.s t t t u t t u u u u u u s p u d n ^ ).(.",
" XD.D d 3 : : # # # # # # = = = = = @ e x.u.4 : ; ; ; ; ; = = = # # # # # # # # t B.i.1 = % % : ; ; : : : : : : 1 : 2 8 a R E.E.",
"%XD.A t : o o o                       q n.u.;   o o o o o   o o                 5 z.t.#     o o o o o o o o o o o o O 1 i U E.oX",
"OXD.H 4 -                             3 h.8.%                                   6 z.l.#                             X - t U R. X",
"#XF.H 4 :                             3 h.t.&                                   , j.l.#     o                         O w U R.!.",
"OXG.m w #                             5 z.t.%                                   5 j.t.%                             o # t U E.oX",
"OXG.m w #                             5 z.t.%                                   8 z.t.%                               # t U E.oX",
"OXG.m w #                             5 z.t.#                                   8 z.t.%                               # t U E.!.",
"OXG.m w #                             5 z.t.#                                   5 j.t.%                               # t U E.!.",
"OXG.m t #                             5 z.t.#                                   1 g.t.%                               $ t U E.!.",
"OXG.m t # o                           5 z.t.#                                   1 g.t.%                               $ t U E. X",
"OXG.m t # o                           5 z.t.%                                   6 z.t.%                               $ t U E.oX",
"OXG.F t # o                           5 z.t.%                                   8 z.t.%                             o $ t U E.oX",
"oXG.H w : o                           5 v.u.&                                   1 b.j.:   o                           # t U R.$X",
"=XD.H t % o                         o 9 z.g.:                                   8 j.t.:                           . + & 0 R U.@X",
"*XJ.F 6 O                             8 x.z.$                                   4 b.z.#       .                       # 4 U E. X",
"!.A.! l a w w 6 8 8 8 8 8 8 8 8 y y 8 b Z.N.d 6 8 8 8 8 8 8 8 8 8 8 8 8 t t y y l Z.N.p w 8 8 8 8 8 8 8 8 8 8 8 8 9 t j m / ^.).",
" XE.a.r.1.<.<.%.+.+.o.o.o.o.+.+.<.%.=.*.1.3.%.$.o.o.o.+.+.+.+.+.$.$.$.$.%.%.%.%.&.<.4.&.| o.1.o.o.+.+.+.o.o.o.o.+.5.%.3.u.a.I.@X",
"].E.t.1.o.X.X.] ] ] { { { { ] ] X.{ ` _ N J ' ] { { { ] ] ] ] ] X.] ] ] ] ] ] ] ` V ' [ ` [ X.] ] ] { ] ] { { { K X.[ o.7.y.Y.[.",
"Q.K.>.R H A z C F m m m m m m M F H H E T.V.D m m m m m F M M M m m m F H H H H E K.Z.H F m b m m m M M m m m m M G F I ^ w.)._.",
"%XG.H 8 %                           o 7 g.2.@                                   1 g.8.@                             o % 0 U E.oX",
"OXG.H t ; o                           1 j.t.#                                   1 g.8.#                             o - t R E. X",
"OXG.H t ; o                           1 j.t.#                                   1 j.8.%                             o : t W E. X",
"OXG.H t ;                             5 j.t.#                                   1 z.t.%                             o : t W E. X",
"OXG.H t ;                             5 z.t.%                                   5 z.t.%                             o : t W E. X",
"OXG.H t ;                             5 z.t.%                                   6 z.t.%                             o : t W E. X",
"OXG.H t ;                             5 z.t.%                                   6 z.t.%                             o $ t R E. X",
"OXG.H t ; o                           5 z.t.%                                   1 z.t.%                               # t R E.OX",
"OXG.H t ; o                           5 z.g.%                                   1 z.t.%                               # t R E.OX",
"OXG.H t =                             1 z.t.#                                   1 j.t.%                               $ t U E.oX",
"#XG.H t =                             1 z.8.#                                   1 j.t.%                               # t U E. X",
"#XG.H t ;                             1 z.8.#                                   1 j.t.%                               # t U E.!.",
"OXG.H t #                             1 z.t.%                                   5 j.t.%                               # t U E.!.",
"OXG.H w #                             5 z.t.&                                   6 z.t.%                               # t U E.E.",
"OXG.H w #                             6 z.t.&                                   6 z.t.%                             o # t U E.!.",
"OXG.H w #                             8 z.g.:                                   6 x.g.%                             o # t U ^.!.",
"#XG.H w #                             8 x.g.1                                   8 b.g.:                             o # t U !.!.",
"%XB.B t #                         o @ 0 x.9.#                                   8 z.g.%                             o % 0 U E. X",
"Q.R.w.:.O.[ [ K ....[ [ [ [ ....Y .. .,.B.C.! J [ [ [ [ [ [ [ [ Y Y Y Y Y Y Y Y 1.A.D.O.J J ..J ............[ [ J ] #.@.,.p.~.).",
"[.E.t.:..._ ' ' _ _ _ _ _ _ _ _ { ] ) Z v c G ] _ _ _ _ _ _ _ _ _ _ _ _ _ ' ' ' ) x M Z ) _ [ G _ _ _ _ _ _ _ _ _ } _ { 1.7.H.{.",
"L.R.p.r.1.@.&.@.;.;.;.;.;.;.;.;.;.4.@.:.z.z.-.<.;.;.;.;.;.;.;.;.;.;.<.<.<.<.<.<.2.M.s.O.@.;.;.;.;.;.;.;.;.;.;.;.;.2.@.3.u.p.E. X",
"~.K.T d 4 ; : : - - - - - - - - : < : u z.8.3 O = = = - - - - - = = = : : : , , t v.u.3 # : : # - - - - - - - - : * 1 t k ^ ^.oX",
"*XH.J y -                       X     1 k.t.#                                   1 z.g.#                             o : t U ].].",
"~.L.P i ; o                         o 3 g.7.%                                   4 u.7.% o                           o ; r L )._.",
"].H.J y -                         .   , h.8.#                                   < c.0.$                             o : t U E.[.",
"OXG.I t ; o                           3 k.t.#                                   6 z.t.#                             o : i R E.oX",
"OXG.I t ; o                           3 k.t.%                                   6 z.t.#                             o : i Q E.oX",
"OXG.I t : o                           3 k.u.%                                   6 z.t.%                             o : i Q E.oX",
"OXP.Y u : o                           3 k.u.%                                   6 z.t.%                             o : a Q E.oX",
"OXP.Y u : o                           3 k.u.%                                   6 z.t.#                             o : a Q E.oX",
"OXP.Y u : o                           3 k.u.%                                   1 z.t.#                             o , a Q E.oX",
"OXP.Y u : o                           3 k.t.%                                   1 j.t.#                             o , a Q ^.oX",
"OXR.Y u : o                           3 k.t.#                                   1 j.t.#                             o , s Q ^.~.",
"}.P.Y s : O                         o 3 g.8.%                                   , z.i.#                           . o 1 d Q ~.~.",
"OXR.I u : +                           1 z.u.:                                   , x.i.%                           . O , a R !.oX",
"%XR.U s 1 +                       o   8 b.g.;             o o o                 w m.l.:   o   X o o o o o o o o o + O 3 a Q  XOX",
"!.R.E g 4 % : # # # # # # # # # ; : % t B.g.4 ; % ; ; ; ; ; ; ; # # # # # # # # t m.a.4 # : % : ; ; : : : : : : , , > e g / E.E.",
";XQ.^ n d q t q w w w w w w w w t y t k G.B.f t t t t t t t t t t t t w w w w w l G.N.f w y t y t t u u u u s u a p a g S q.~.;X",
"OXL.>.R D A A m F F H H F F F A H B H E G.B.U H H H H H H H H H H H H H H H H H ! G.N.U H J H J I I I Y Y Y Y Y P  .U R ~ e.Q.oX",
"OXQ.S.d.A.G.G.D.G.G.G.G.G.D.G.D.H.G.D.V.E.E.D.R.G.G.G.G.G.G.G.G.G.G.G.G.G.G.G.G.N. XE.A.G.P.G.P.G.L.L.L.L.R.R.R.R.P.R.D.Z.f. X[.",
"E.).'.`.$X>X}.-XOXOXOXOXOXOXOXOXOX|.;XW.oXOX!.OXOXOXOXOXOXOXOXOXOXOXOXOXOXOXOXOX).OX^.).>X;X!.-XOXOXOXOXOXOXOXOXOX}.$X$X).T.[.]."
};
