/* XPM */
static char *c8df88c18c2141e3eb23c0a688b26ffczSNTaYkCn7gEjOjx[] = {
/* columns rows colors chars-per-pixel */
"64 64 185 2 ",
"   c #000001",
".  c #080307",
"X  c #000807",
"o  c #010508",
"O  c #020C0D",
"+  c #03120F",
"@  c #020E11",
"#  c #041413",
"$  c #0B1515",
"%  c #051916",
"&  c #0A1916",
"*  c #061619",
"=  c #0A1618",
"-  c #061A1A",
";  c #0B1A1B",
":  c #111E1E",
">  c #07201C",
",  c #0C221F",
"<  c #11211E",
"1  c #0B1E22",
"2  c #0C2525",
"3  c #0B2921",
"4  c #0E2629",
"5  c #122322",
"6  c #1A2320",
"7  c #142A26",
"8  c #152D2C",
"9  c #192D2C",
"0  c #16302D",
"q  c #1A322F",
"w  c #142F32",
"e  c #1B2F30",
"r  c #163133",
"t  c #1C3332",
"y  c #1C3A36",
"u  c #1E3739",
"i  c #1B393A",
"p  c #20302F",
"a  c #213636",
"s  c #213936",
"d  c #223738",
"f  c #223E3E",
"g  c #24413D",
"h  c #224343",
"j  c #2A4743",
"k  c #2C4C46",
"l  c #2A4D49",
"z  c #344745",
"x  c #304B46",
"c  c #344D49",
"v  c #394D4B",
"b  c #29504D",
"n  c #36544D",
"m  c #39534E",
"M  c #355551",
"N  c #3A5551",
"B  c #375A54",
"V  c #3C5A54",
"C  c #3C5E5A",
"Z  c #3E615B",
"A  c #3E6363",
"S  c #415452",
"D  c #415A56",
"F  c #4A5B56",
"G  c #445E59",
"H  c #4C5C5A",
"J  c #505E5E",
"K  c #496056",
"L  c #43635D",
"P  c #4B625D",
"I  c #51645F",
"U  c #446561",
"Y  c #4B6461",
"T  c #446A63",
"R  c #4C6B65",
"E  c #466F6B",
"W  c #4B6E69",
"Q  c #516562",
"!  c #5B6767",
"~  c #516B65",
"^  c #546D69",
"/  c #5A6E6C",
"(  c #45726B",
")  c #4F776F",
"_  c #4A786E",
"`  c #557067",
"'  c #587267",
"]  c #54746E",
"[  c #5B716E",
"{  c #5D786F",
"}  c #4E7874",
"|  c #567770",
" . c #5A7470",
".. c #547B74",
"X. c #5C7A74",
"o. c #577E79",
"O. c #617472",
"+. c #627B76",
"@. c #617E7A",
"#. c #687C7A",
"$. c #568379",
"%. c #5E807A",
"&. c #65867E",
"*. c #69837F",
"=. c #67887F",
"-. c #668780",
";. c #688580",
":. c #668982",
">. c #6A8B83",
",. c #6E8F88",
"<. c #728C87",
"1. c #718E89",
"2. c #679185",
"3. c #6D9187",
"4. c #6C938B",
"5. c #6E988E",
"6. c #72928B",
"7. c #6E9992",
"8. c #769690",
"9. c #749B93",
"0. c #7A9D95",
"q. c #7F9E98",
"w. c #74A295",
"e. c #7BA196",
"r. c #75A099",
"t. c #7CA39A",
"y. c #7BA89B",
"u. c #7DABA1",
"i. c #84A49C",
"p. c #88A79F",
"a. c #84A99E",
"s. c #8AAA9F",
"d. c #85ACA2",
"f. c #8AACA4",
"g. c #8CAFA8",
"h. c #84B2A6",
"j. c #8AB2A7",
"k. c #88B2A5",
"l. c #8DB3A6",
"z. c #8BB5A6",
"x. c #8FB5A6",
"c. c #8EB7A7",
"v. c #8BB3A6",
"b. c #89B1A8",
"n. c #89B3A9",
"m. c #8AB3AB",
"M. c #8BB3A8",
"N. c #8BB5AB",
"B. c #8FB5AA",
"V. c #8EB6AB",
"C. c #8CB5A9",
"Z. c #8DB7AD",
"A. c #8FB7AC",
"S. c #8FB7AE",
"D. c #8DB5AA",
"F. c #87BAAB",
"G. c #8EB8AA",
"H. c #8EB8AC",
"J. c #8EBAAD",
"K. c #8FBBAE",
"L. c #8EB9AC",
"P. c #92B2A6",
"I. c #92B3A8",
"U. c #91B7A9",
"Y. c #91B7AA",
"T. c #94B4A9",
"R. c #91B7AC",
"E. c #92B4AA",
"W. c #90B9AB",
"Q. c #92B8AB",
"!. c #92B8A9",
"~. c #90B8AD",
"^. c #92B8AD",
"/. c #93B9AC",
"(. c #91BAAC",
"). c #91B9AE",
"_. c #95B9AD",
"`. c #90BCAF",
"'. c #92B9AD",
"]. c #8EB9B0",
"[. c #8FBAB0",
"{. c #92BAB1",
"}. c #94BEB2",
"|. c #95BCB1",
" X c #99BDB1",
/* pixels */
"k.d.n.N.}.).).Y.`.K.K.K.K.K.K.K.B.).).B.).k.B.).).R.R.R.).).).R.S.R.R.).B.B.S.).Y.z.k.I. XF.L.T._.).).(.(.(.(.(.).B.(.K.[.u.K.z.",
"N.d.9.5.r.t.i.i.i.i.i.i.i.i.i.i.i.i.t.0.k.d.t.a.a.a.a.a.a.d.a.a.p.p.a.i.i.i.i.i.0.K.n.q.p.y.a.p.a.a.a.a.a.a.d.d.d.d.d.y.r.7.S.L.",
"{.d.) Z B M M n m m m m m m m m V N V T e.8.Z V V V V V V V V V V N N N N N M N U t.8.G V C Z G P P P P U Y Y Y U P Y U T } f.B.",
"S.d.Z h i r 9 9 0 0 8 8 0 0 0 0 9 7 8 j 0.6.y 9 t t q t t t t q 9 9 9 9 9 9 9 7 g 0.4.t 9 r 0 q t t t t a a a a d t t f l E n.(.",
").f.B i 2 * # @ # # # # # * * * * # * 8 6.>.> = * * # * * * # # $ # # # # # # @ 7 9.>.> # * * * = = = = & & & & ; & ; 4 i A n.v.",
"B.i.M r - @ X o o o o o o o o o X o X 5 6.>.# X o o o o o o o X o X o X o o o o 5 8.-.# o X   o o o o o o o o o o o O ; r A B.Y.",
"_.i.N 8 # X                     X     ; 6.>.# o                                 5 6.-.# o                         o o * w C n.z.",
"_.q.N 8 * X                         o 5 6.&.#                                   5 6.>.+                               # w C n.z.",
"`.i.m 8 * o                           5 6.>.#                                   5 6.-.#                             o # 8 C k.(.",
"K.i.m 8 * o                           5 6.>.#                                   5 6.-.#                             X # 8 C k.(.",
"K.i.m 8 * o                           5 6.>.+                                   5 6.-.#                             X # 8 C k.L.",
"K.i.m 8 * o                           < 6.-.+                                   < 6.-.+                             X # 8 C k.L.",
"K.i.m 8 * o                           < 6.-.+                                   ; ,.-.+                             X # 8 C k.B.",
"K.i.N 8 * o                           5 6.-.+                                   ; <.-.+                             X # 8 C k.B.",
"K.i.N 8 * o                           5 6.>.+                                   5 6.-.#                             o # 8 C k.B.",
"K.i.N 8 * o                           5 6.>.#                                   5 6.>.#                             o # 8 C k.B.",
"B.a.N 9 & o                           6 6.2.%                                   5 6.>.&                               * 8 Z v.U.",
").a.V 9 & o o                         7 6.3.&                                   9 6.>.&     .                       o * 8 L l.z.",
"}.e.n 5 O o o .                       , 6.>.O .                   o             5 6.,.*                         . o o # 4 L l._.",
"F.w.T l y 0 7 7 7 7 7 7 7 7 7 7 9 q 0 k 9.6.y 7 7 7 7 7 7 7 7 7 5 7 7 7 8 9 9 9 x e.4.t 5 9 8 7 7 7 7 7 7 7 7 7 7 7 r f b _ d.N.",
"R.f.6.&. .[ [ [ [ [ [ [ [ [ [ [ [ ^ [ +.[ #.[ R / [ [ [ [ [ [ [ / / / [ [  . .[ O.| X.O.! ^ ^ ] [ [ [ [ / / [ [ ' { X.@.>.6.P.T.",
"I.f.<.+.^ Q Q Q I P P P P P P I Q Q Q I S H P R P P P Y Y Y Y Y Q Q Q Y Q Q Y Y J V D Q ! H G Q P P P P P P P P K I Q ^ X.=.s.P.",
"h.y...T B n n m m m m n n m m m V D n L y.e.B c n n n n n n n n n n m m V V V V T d.0.k c n n n n n n n n n n n n V N U ( $.F.F.",
"|.e.V 9 # o                         X > ,.@.# o                                 > ;.*.O     o                     o o = 8 C f.Y.",
"K.p.D 0 # o                           < 6.&.+                                   : 6.&.+                             X * r L k.B.",
"K.p.D 0 # o                           < 6.&.+                                   : 6.&.+                             X * r L k.B.",
"K.p.D 0 # o                           < 6.&.+                                   : 6.&.+                             o * r L k.B.",
"K.p.D 0 # o                           < 6.=.+                                   : 6.=.#                             o * r L k.L.",
").p.D 0 # o                           < 6.=.#                                   5 6.>.#                             o * r L k.L.",
").p.D 0 # o                           < 6.>.#                                   5 6.>.#                             o * r L v.L.",
").p.D 0 # o                           < 6.>.#                                   5 6.>.#                             o * r L k.L.",
").d.D 0 # o                           < 6.>.#                                   5 6.>.#                             o * r L v.L.",
"K.p.D 0 * o                           < 6.=.#                                   5 6.>.+                         o   o * w U n.L.",
"K.p.V 0 # o                           < 6.=.#                                   : <.>.+                         o   o * 8 L g.z.",
"K.p.V 0 * o                           < <.=.#                                   : <.>.+                             o * 8 L g.z.",
"K.p.V 0 * o                           < <.=.#                                   < 6.>.+                               * 8 L g.z.",
"K.p.V 8 # o                           < 6.>.#                                   5 6.>.#                             X * 8 U g.z.",
"K.p.V 8 # o                           5 6.>.#                                   5 6.>.#                             X * 8 U g.z.",
"K.p.V 8 # o                         o 5 6.,.*                                   7 6.>.* o                           X * 8 U l.z.",
"K.p.V 8 # o                         o 5 8.,.&                                   7 6.>.* o                           X * 8 U l.z.",
"{.e.M 7 # o                       X   3 6.<.# X                                 7 6.,.#                         o o o * 8 C n.l.",
"h.d.:.] R Y H P P P P P P P P P ~ ~ ~ X.9.0.Y G P P P P P P P P L L L L R R R R | w.0.~ G L L F P P P P P P P P P Q ~ ] o.:.[.z.",
"I.f.,. .Y P F Q H H H H H H H H D F F F z S G Y H H H H H H H H H H H F H H H F H v v H H H H H H H H H H H H H G K F Y X.&.f.P.",
"N.d.>.%.X. .` [ | | | ] ] | | | | +.O.+.<.,.^ ~ ] ] ] ] ] ] ] ]  .[ ] ]  .| X.X.+.4.:.] ] ] W ] ] ] ] ] ] ] ] ] ` { { %.>.2.B.z.",
"N.t.B y 2 * & * $ $ $ $ $ $ $ $ & ; & t 6.>.7 * $ $ $ $ = = = = $ $ $ $ & ; ; ; p 6.>.5 # $ * * $ $ $ $ $ $ $ $ & & , 8 h T h.B.",
"_.f.D t = o .                   .     & 6.*.O .                 .               - ,.>.+ o o X o                 . o o = 8 C l.Y.",
"L.a.Z t * X X                     o X , 4.&.+ o                                 5 >.&.# .                       o   X % 0 Z N.F.",
"_.p.P 9 $ o o                     .   : <.;.O o                                 : 6.>.O                         .     $ t U l.Y.",
"F.p.G r - o                           < 6.-.+                                   < 6.=.+                             o * t U n.L.",
"F.p.H r - X                           5 6.>.+                                   < 6.=.+                             o * r T N.L.",
"F.f.H t - X                           5 6.>.#                                   < 6.>.+                             o * r T n.B.",
"F.f.P t - X                           5 6.>.#                                   5 6.>.+                             o * r T n.B.",
"F.f.Y t - X                           5 6.>.#                                   5 6.>.#                             o = y T B.B.",
"L.f.Y t - X                           5 6.>.#                                   5 6.>.#                             o * y T B.B.",
"L.f.Y t - o                           5 6.>.+                                   5 6.>.#                             o & y R B.B.",
"L.f.Y t - o                           < 6.-.+                                   < 6.>.+                             o & y R B.B.",
"(.p.R s & o                         o < ,.>.+                                   5 ,.&.#                             X ; u W k.).",
").a.L t ; O                     o o o < ,.=.+ o                                 5 <.-.#                           X X - u R n.B.",
"L.d.U t 1 @ o o o o o o o o o o X o o 5 9.,.% o o o o o o o o o o X o X o o X o 5 8.>.% o o o X o o o o o o o o X O @ 2 i R S.K.",
"B.g.R f 7 * # # # * * * # # * # * = * t 9.>.2 = * * * # # # # # $ # # # # # # @ 0 0.4.5 * * * ; * * * = & & & ; & ; 1 w h E Z.N.",
"B.g.W l i r e r 8 8 8 8 8 8 8 8 9 9 7 k y.9.g 9 t t t r r r 0 0 t 9 9 9 9 9 9 7 j t.8.f 9 0 r e t t t t t a a a s t r h M ..K.B.",
"}.f.o.Z B M n n N N N N m m N N V n n L i.t.U N D D D D D D D D V V V N V N N N U y.0.P D B C D P P P P L U Y Y U U U U T $.h.B.",
"B.d.8.6.9.i.y.a.p.i.i.i.i.i.p.p.i.a.i.r.k.d.r.a.p.p.p.p.p.p.p.p.a.a.p.p.a.a.i.i.0.K.B.q.i.a.d.p.a.a.a.a.a.d.d.d.a.d.f.y.8.0.N.{.",
"B.k.B.).B.}.B.).K.L.L.L.L.L.K.`.).).}.k.S.B.B.).K.K.K.K.L.K.L.L.R.R.R.R.).).).).R.S.k.I._.F.L.P.).).).).).).).).(.B.).S.S.n.B.B."
};
